<?xml version="1.0" encoding="UTF-8"?>
<svg xmlns="http://www.w3.org/2000/svg" xmlns:xlink="http://www.w3.org/1999/xlink" width="31.88" height="32" viewBox="0 0 256 257" version="1.1" preserveAspectRatio="xMidYMid">
    <defs>
        <linearGradient x1="-0.828097821%" y1="7.6518539%" x2="57.6359644%" y2="78.4107719%" id="linearGradient-1">
            <stop stop-color="#41D1FF" offset="0%"></stop>
            <stop stop-color="#BD34FE" offset="100%"></stop>
        </linearGradient>
        <linearGradient x1="43.3760053%" y1="2.24179788%" x2="50.3158848%" y2="89.0299051%" id="linearGradient-2">
            <stop stop-color="#FFEA83" offset="0%"></stop>
            <stop stop-color="#FFDD35" offset="8.33333%"></stop>
            <stop stop-color="#FFA800" offset="100%"></stop>
        </linearGradient>
    </defs>
    <g>
        <path d="M255.152904,37.937763 L134.896865,252.97691 C132.413943,257.416338 125.858915,257.442331 123.343728,253.02723 L0.78040914,37.9584812 C-1.87267702,33.1438272 2.16927037,27.3625742 7.75345271,28.2134214 L128.489471,49.2609286 C129.443315,49.4313147 130.423096,49.4285654 131.375098,49.2533085 L248.273012,28.3578604 C253.846311,27.4962302 257.8555,33.2497941 255.152904,37.937763 Z" fill="url(#linearGradient-1)"></path>
        <path d="M185.432171,0.0631038902 L96.4366551,17.5978498 C95.0921341,17.8990452 94.0196865,19.0485812 93.8614108,20.4225158 L79.2851554,139.215809 C79.0687812,141.048635 80.4177807,142.683695 82.2476344,142.591104 L127.763738,140.497089 C129.815156,140.392658 131.434259,142.424362 130.963605,144.42908 L113.73848,208.917706 C113.143682,211.351548 115.740978,213.415635 117.966726,212.151493 L140.879641,199.313057 C143.086459,198.058364 145.654277,200.089112 145.093612,202.496696 L133.226605,253.9183 C132.406325,257.608354 137.831043,259.59879 139.832796,256.326235 L142.979135,251.267423 L224.786325,70.8023874 C225.908416,68.3608415 223.855127,65.5823622 221.194857,66.0192138 L174.827909,73.2167571 C172.717504,73.5738993 170.898354,71.5512577 171.623496,69.5215948 L198.225569,5.40627967 C198.95071,3.37661677 197.131561,1.35397523 195.021156,1.71111748 L185.432171,0.0631038902 Z" fill="url(#linearGradient-2)"></path>
    </g>
</svg>
